PathFileType	4	(X/Y/Z)	S01_Demo_SingleTrial_0-100.trc
DataRate	CameraRate	NumFrames	NumMarkers	Units	OrigDataRate	OrigDataStartFrame	OrigNumFrames
60	60	8	21	m	60	25	100
Frame#	Time	RHip			RKnee			RAnkle			RBigToe			RSmallToe			RHeel			LHip			LKnee			LAnkle			LBigToe			LSmallToe			LHeel			Neck			Head			Nose			RShoulder			RElbow			RWrist			LShoulder			LElbow			LWrist		
		X1	Y1	Z1	X2	Y2	Z2	X3	Y3	Z3	X4	Y4	Z4	X5	Y5	Z5	X6	Y6	Z6	X7	Y7	Z7	X8	Y8	Z8	X9	Y9	Z9	X10	Y10	Z10	X11	Y11	Z11	X12	Y12	Z12	X13	Y13	Z13	X14	Y14	Z14	X15	Y15	Z15	X16	Y16	Z16	X17	Y17	Z17	X18	Y18	Z18	X19	Y19	Z19	X20	Y20	Z20	X21	Y21	Z21
26	0.4333333333333333	-0.15906195574459986	0.9509834828262242	-1.196282820052025	-0.37198830794672155	0.6176376500977921	-1.0622743832164958	-0.29502665782790777	0.20492556273703413	-1.3130361797620538	-0.3427453760961091	0.10670923055281374	-1.1711442292669427	-0.3616538562021051	0.1136373736986226	-1.2242807172280536	-0.264234515430924	0.19607456629768827	-1.3492459458236323	0.00977011251441277	0.8803407147752619	-1.2214217952674389	-0.06414455232142521	0.5148489385832514	-0.9919941214917736	-0.014948847203899388	0.1414800305818417	-1.1598118115937692	-0.008060434899516222	0.08467124443363341	-0.9955574974711348	0.029366465873844776	0.08293157462272414	-1.0378922339456274	-0.0049211096072453	0.11230997593761853	-1.2155190004500358	0.18255989010341486	1.4006995255019907	-1.1468393720619805	0.2719030744289215	1.6138171173320215	-0.9857697536420064	0.21389033796400586	1.4775595473266527	-0.9592130925656089	0.023546634176908707	1.4319370945104235	-1.1789466891948686	-0.21290601255469918	1.379879984832602	-1.2307170669918337	-0.3557176679654707	1.470885472569189	-1.0754097003260028	0.29966375259774913	1.2764059074868799	-1.1661862622808588	0.34176173072712296	0.9912526099160592	-1.1519009015077781	0.3352324339507627	0.7431651738098491	-1.1055203113220817
27	0.45	-0.1616659543008113	0.9513029144229648	-1.1894094491386153	-0.3828374238289129	0.6224644645458557	-1.0581169067572587	-0.3343385382396219	0.20878351563842332	-1.2873959888772843	-0.3866976044239803	0.11513257331885987	-1.142162262348489	-0.4042345644609953	0.11879064931692433	-1.1960800302276515	-0.30693331237641014	0.19669394323033262	-1.325895503796474	0.00925855896936728	0.8794103266251887	-1.209824642783702	-0.062352915378183084	0.5198429094919623	-0.9674405678206014	-0.014220552605335259	0.14340334240863192	-1.1569491457170553	-0.008842263071692627	0.08251391754491504	-0.9958993451999884	0.027648094250237447	0.08169680695249376	-1.0363590378003358	-0.005434333414134559	0.11288797795074636	-1.2126498676892885	0.18836797884847445	1.3942079303240174	-1.1396081768282598	0.28415163725410747	1.608298818690803	-0.9724447057498913	0.21978570853147839	1.4739304060388585	-0.9516838931459942	0.030265837924972092	1.4294811126863456	-1.1678553318039007	-0.2105779889162636	1.3866225889754837	-1.222217983512402	-0.3517465962085579	1.4785977438580786	-1.074045136567916	0.3052693642618986	1.2690638953097175	-1.1542412989100552	0.3422962913836559	0.9839045333089327	-1.1430974614511178	0.33366981411795194	0.7338228406186481	-1.0869857526984916
28	0.4666666666666667	-0.16434921874395936	0.9517605161410847	-1.1812370095919416	-0.39247447154790277	0.6250714953092538	-1.0572705850347999	-0.37453388048974035	0.21643895144340847	-1.2626447567433525	-0.4292493370477274	0.12589012835277985	-1.114502224898394	-0.4462471574259667	0.1270190663872331	-1.170794015311691	-0.35006232362831496	0.19916953021822184	-1.3032405697722838	0.008992130293849971	0.8786089619954136	-1.1977819221613732	-0.06134875103496895	0.5231852141875672	-0.9479400396257778	-0.013393554780302738	0.14425752943924977	-1.15490144261421	-0.009736131793551258	0.08071100929770311	-0.995914457349291	0.02560783547541829	0.08055976189655262	-1.0345919107142143	-0.005343532271005888	0.1124093246830178	-1.2104446215223061	0.19387918312049898	1.387574837698256	-1.1323921690571654	0.296220131834929	1.6033351637279378	-0.9582736581393776	0.22515733039611108	1.4698287661247074	-0.9452308898484875	0.03720373514350807	1.4270947615927885	-1.1564075435524115	-0.20627349001059012	1.3941299081462402	-1.2162905288412498	-0.3457296540432675	1.4877185637480113	-1.070600929206449	0.3098437526892692	1.261792922167709	-1.1448879206248312	0.3421772431666582	0.9769144404563098	-1.1356042442564007	0.3330547879798752	0.7251259186032271	-1.0709444933874943
29	0.4833333333333333	-0.16720825418622368	0.9526272144327003	-1.1717435641923957	-0.40240337045627633	0.627524529757883	-1.0554689021422934	-0.41430843924743044	0.22629292521868818	-1.2394133219763745	-0.46935022807750776	0.13922713513531174	-1.088377250886703	-0.48706063567414415	0.1383566315391224	-1.1485882112613925	-0.39293435687743183	0.20333468869546628	-1.2816288875740989	0.008905499614788903	0.8777663108114768	-1.1857983186666858	-0.0613982571825565	0.5244332169323714	-0.9347748070662045	-0.012672665400321373	0.14412033649747366	-1.1537625710612875	-0.010543846331719477	0.07945865321327851	-0.9956024890611709	0.023776794770789277	0.07955528807506568	-1.0329989563527153	-0.004902999951673654	0.11124453586252844	-1.208863084083058	0.19884058199836846	1.3809768416494195	-1.1251524082808428	0.3072660836836851	1.5982113431172296	-0.9453932850153381	0.230695675599486	1.4645647023128499	-0.9392571252196248	0.04396564105495499	1.424799731147266	-1.1453476696724278	-0.20106515238936218	1.4019869842841588	-1.2111205142635406	-0.338333120022141	1.4979565584152763	-1.0662437401754317	0.3135697718491749	1.254492859142507	-1.1379406771513594	0.34195608925603704	0.9698603863751039	-1.1279692941070583	0.33287389905557596	0.7172380216180199	-1.058080881730082
30	0.5	-0.17014870063107215	0.9539932663017138	-1.1614523306196143	-0.4131441265245994	0.6311705329334819	-1.0507934667255276	-0.4522379739828637	0.23683588561537117	-1.2179765346751887	-0.5064329055444406	0.15474368633865548	-1.0642354819787554	-0.5255769177897255	0.15226933689456926	-1.1291562683240306	-0.4346137313181808	0.20911405734376332	-1.2613259321187813	0.008829143032837794	0.8767087977124345	-1.174464554176858	-0.062163836705028994	0.523800526323871	-0.9270102627646308	-0.012249366048393872	0.14340622484720564	-1.1534454907170506	-0.011171143173589517	0.07871510758074445	-0.9952790139137574	0.022541649709191678	0.07874062140895931	-1.0319287850127343	-0.004516403103495833	0.10984578708290949	-1.2077906749852945	0.20315717032969532	1.3746274898672817	-1.1180052449852755	0.31705416933575503	1.5925980630339716	-0.9348477292943627	0.23705437043184052	1.4576465843953939	-0.9332020019770052	0.05007235275361839	1.4226017275657847	-1.1353426976394656	-0.19594671973236336	1.409656156866046	-1.20617047056683	-0.3303651475159611	1.5089247802081545	-1.0608687751277734	0.3166946803780751	1.2472274434589958	-1.133215909656072	0.3418838045650327	0.9625439514078115	-1.120193145012565	0.33274291900491243	0.7104450986456416	-1.0476359253190808
31	0.5166666666666667	-0.17311134926454164	0.955712178634517	-1.1511658523274568	-0.42440783038959917	0.6364698381472546	-1.0437017920678162	-0.4872658307076431	0.2472690187558539	-1.1982383312060456	-0.539873695848605	0.1710902653209362	-1.042529015294292	-0.5607684701555599	0.16792838108427105	-1.11152092120161	-0.4740917786646467	0.21634371743142614	-1.2424305271074674	0.008408994419111391	0.8754069141241052	-1.164587980620171	-0.06299841892162127	0.5217688771363559	-0.9228411466233547	-0.012224162563981397	0.14258569503155646	-1.1538217944630316	-0.011530624608182119	0.07829543634323048	-0.9953638902544509	0.022001631333499094	0.07828325337631953	-1.0315119355537266	-0.004399323602836415	0.10859895728687283	-1.2072041677177388	0.20691737755074227	1.36874808247764	-1.1111016843741688	0.3258626566235826	1.5865203487035917	-0.9268072119697984	0.24461660187467835	1.4490191823566634	-0.9268685769288978	0.05519426162648121	1.4205539076222242	-1.12693157929339	-0.19173736684417486	1.4165967747949968	-1.2022063139604113	-0.32242772377687584	1.5202373960281257	-1.0549756108771726	0.31923389853818057	1.2402937917694252	-1.1306442645258716	0.34205391525856943	0.9549870402308972	-1.112962247513317	0.3325845017493036	0.7047897000855736	-1.0382444670238782
32	0.5333333333333333	-0.1761493959330316	0.9574806412737135	-1.1416089796281752	-0.4356303646760953	0.6429369539595765	-1.0360587141222757	-0.5189193544979102	0.2575910308168846	-1.1798666862169782	-0.5695790218979152	0.18687459053080624	-1.0233760270206074	-0.5922200476324357	0.18425523437709296	-1.09447682777821	-0.510376450102554	0.22463296951048783	-1.2248044099038338	0.00715243016596218	0.8740282992951295	-1.1569980004837999	-0.06336228277810399	0.5188249700217616	-0.9206363407204077	-0.012513441130410466	0.14193073476758353	-1.1547194825579292	-0.011443701646918415	0.07793927061211378	-0.9961283425337939	0.021989510152623834	0.07829516218676959	-1.0316411809431596	-0.00445613624761994	0.10779996806651981	-1.2071796148301024	0.21031059091077509	1.363507012277305	-1.1044773080103458	0.334201332359099	1.580082559589047	-0.9208563467528051	0.25355352081100935	1.4391437316695608	-0.9207576399747476	0.059343312514074875	1.4187299607130983	-1.1202840077335534	-0.18881083569482246	1.4224240690561192	-1.2004204722379637	-0.31474767313220037	1.5315933611512538	-1.0502222703053141	0.3209354439610038	1.2340977511126339	-1.1301194440162792	0.34269031041374554	0.9473587459917304	-1.1067725300236078	0.3324882889296858	0.699873195296719	-1.0292206185199548
33	0.55	-0.17937285074295584	0.9589814005755207	-1.1332024644766683	-0.4463959158640971	0.649357619936676	-1.0299865064476141	-0.5472569197772761	0.26807780105751805	-1.1625823285949601	-0.5964595339930268	0.20128762775189546	-1.0070774392275934	-0.6196662873123954	0.1993470322866838	-1.0776271077059942	-0.5427950447818956	0.23363290542425758	-1.2081213237652626	0.004829974251981859	0.8726703290470035	-1.1515444327448012	-0.06309756118462641	0.5154172680719187	-0.9193845737591669	-0.012941979986343782	0.14147761545472515	-1.1559102577703826	-0.010830597881920557	0.0774015868297769	-0.9975356717995438	0.02217770687154458	0.07860848027072126	-1.0321634508889623	-0.00452504463247409	0.10760517247573978	-1.2077670163094814	0.21352377058134903	1.3589092849931412	-1.097912231640143	0.34249376116861224	1.573201989772844	-0.9162968795843244	0.2638522355123433	1.4287970690685348	-0.915749628182557	0.062813576376704	1.4171836020203445	-1.115082935545997	-0.18711290236365838	1.4270103376584569	-1.2014808884558237	-0.3070956848045643	1.5429831871789097	-1.0474700518075888	0.3214911920048109	1.2289283657578167	-1.1313899607899882	0.3441388560912053	0.9399096986349487	-1.1019295713263082	0.3325665357706424	0.6951116378074618	-1.0207461358359762
